#!OML:ASF F:\VICON\USERDATA\INSTALL\rory3\rory3.ASF
:FULLY-SPECIFIED
:DEGREES
1110
root 3.7474 23.4778 -0.313495 -171.272 -30.3831 182.53
lowerback 13.3945 -2.19693 -7.47172
upperback 1.26036 -4.18243 -0.346792
thorax -5.66987 -1.93899 4.58726
lowerneck -11.5425 0.965113 -9.34139
upperneck 40.4057 -4.10018 7.95417
head 16.8906 -3.55171 4.15248
rclavicle -3.57812e-014 5.56597e-014
rhumerus 19.624 2.71329 -57.0164
rradius 98.2098
rwrist 30.3495
rhand -1.42954 -6.02013
rfingers 7.12502
rthumb 24.2204 -34.5106
lclavicle -3.57812e-014 5.56597e-014
lhumerus 23.0505 -36.2453 71.1018
lradius 64.8061
lwrist -36.6359
lhand -14.923 24.438
lfingers 7.12502
lthumb 11.239 54.1169
rfemur -14.8219 -3.21731 30.5383
rtibia 14.367
rfoot -7.86905 -5.00653
rtoes 16.2865
lfemur -79.9757 22.6587 -32.1767
ltibia 100.428
lfoot -14.8963 -23.7876
ltoes 2.3911
1111
root 3.77256 23.4973 -0.311078 -171.494 -30.3147 182.57
lowerback 13.4349 -2.19538 -7.64558
upperback 1.32188 -4.21603 -0.397073
thorax -5.61426 -1.95867 4.63695
lowerneck -11.6862 1.00087 -9.28544
upperneck 40.4482 -4.04626 7.95734
head 16.9423 -3.52015 4.15466
rclavicle -3.33958e-014 5.56597e-014
rhumerus 19.7638 2.93873 -57.239
rradius 97.7106
rwrist 30.3875
rhand -1.66237 -6.03789
rfingers 7.12502
rthumb 23.9972 -34.5579
lclavicle -3.33958e-014 5.56597e-014
lhumerus 23.1766 -36.1007 70.8974
lradius 64.4276
lwrist -36.5445
lhand -15.013 24.1505
lfingers 7.12502
lthumb 11.1522 53.8341
rfemur -14.7992 -2.83505 30.4689
rtibia 14.5631
rfoot -7.56806 -5.02418
rtoes 15.3608
lfemur -79.8898 23.093 -31.7989
ltibia 100.395
lfoot -14.2871 -24.7474
ltoes 0.632662
1112
root 3.7907 23.5138 -0.302425 -171.53 -30.2798 182.489
lowerback 13.4169 -2.26275 -7.84753
upperback 1.33752 -4.33576 -0.411383
thorax -5.55846 -2.01689 4.75189
lowerneck -11.9053 1.0963 -9.41225
upperneck 40.5357 -3.85372 7.99392
head 17.0231 -3.45681 4.23213
rclavicle 4.53229e-014 -2.06736e-014
rhumerus 20.0028 3.30956 -57.3442
rradius 97.246
rwrist 30.4122
rhand -1.79604 -5.99342
rfingers 7.12502
rthumb 23.869 -34.5303
lclavicle 4.53229e-014 -2.06736e-014
lhumerus 23.1435 -35.7742 70.8631
lradius 64.0879
lwrist -36.5793
lhand -15.0512 23.9079
lfingers 7.12502
lthumb 11.1153 53.5935
rfemur -14.8033 -2.87635 30.367
rtibia 14.5788
rfoot -7.05927 -4.8536
rtoes 14.9046
lfemur -79.9091 23.3499 -31.5672
ltibia 100.327
lfoot -13.9167 -25.5735
ltoes -2.53753
1113
root 3.81529 23.5309 -0.281751 -171.812 -30.9248 182.44
lowerback 13.9342 -2.47364 -7.86061
upperback 1.36318 -4.66713 -0.394407
thorax -5.77095 -2.17057 4.86571
lowerneck -11.8816 1.13053 -9.48091
upperneck 40.4952 -3.77753 8.0155
head 16.9848 -3.43203 4.2659
rclavicle 8.11041e-014 2.70347e-014
rhumerus 20.1446 3.58647 -57.347
rradius 96.7997
rwrist 30.4974
rhand -1.82726 -5.9618
rfingers 7.12502
rthumb 23.8391 -34.5026
lclavicle 8.11041e-014 2.70347e-014
lhumerus 23.2246 -35.6432 70.8025
lradius 63.6677
lwrist -36.5706
lhand -15.2105 23.6853
lfingers 7.12502
lthumb 10.9617 53.3791
rfemur -14.7172 -3.30212 30.3143
rtibia 14.706
rfoot -6.75127 -4.99873
rtoes 14.8052
lfemur -79.5146 22.8202 -31.025
ltibia 100.195
lfoot -14.0015 -26.0866
ltoes -7.39769
1114
root 3.82804 23.551 -0.280707 -171.822 -30.8463 182.273
lowerback 13.8243 -2.43182 -8.09103
upperback 1.35945 -4.64992 -0.528497
thorax -5.71041 -2.16273 4.84144
lowerneck -11.6712 1.1379 -9.38937
upperneck 40.37 -3.84062 8.11026
head 16.8695 -3.43314 4.275
rclavicle -5.04913e-014 -1.74931e-014
rhumerus 20.028 3.75688 -57.4878
rradius 96.4481
rwrist 30.6384
rhand -1.65211 -5.9598
rfingers 7.12502
rthumb 24.007 -34.4785
lclavicle -5.04913e-014 -1.74931e-014
lhumerus 23.2397 -35.704 70.7206
lradius 63.2579
lwrist -36.5907
lhand -15.377 23.4428
lfingers 7.12502
lthumb 10.8012 53.1451
rfemur -14.7315 -3.34295 30.1352
rtibia 14.8679
rfoot -6.28991 -4.80691
rtoes 14.3678
lfemur -79.2487 23.0261 -30.6944
ltibia 100.12
lfoot -14.7227 -26.4163
ltoes -12.1953
1115
root 3.83968 23.5681 -0.279514 -171.857 -30.8257 182.278
lowerback 13.7103 -2.44316 -8.15769
upperback 1.33428 -4.67054 -0.605407
thorax -5.67293 -2.17331 4.79318
lowerneck -11.6732 1.18081 -9.29073
upperneck 40.3837 -3.83477 8.16778
head 16.8757 -3.41316 4.28379
rclavicle 4.96962e-014 -3.18055e-014
rhumerus 19.9856 4.00142 -57.5519
rradius 96.0651
rwrist 30.7098
rhand -1.61045 -5.97118
rfingers 7.12502
rthumb 24.047 -34.4846
lclavicle 4.96962e-014 -3.18055e-014
lhumerus 23.1637 -35.6889 70.7034
lradius 62.8604
lwrist -36.651
lhand -15.8608 23.5464
lfingers 7.12502
lthumb 10.3344 53.2724
rfemur -14.8105 -3.26174 30.1097
rtibia 15.038
rfoot -5.899 -4.76879
rtoes 14.5328
lfemur -79.1226 23.1643 -30.2365
ltibia 100.101
lfoot -15.9352 -26.1646
ltoes -17.9393
1116
root 3.8489 23.5853 -0.275407 -171.92 -30.8382 182.332
lowerback 13.5773 -2.486 -8.1718
upperback 1.3466 -4.71431 -0.599442
thorax -5.57818 -2.19922 4.80411
lowerneck -11.7656 1.17499 -9.31285
upperneck 40.3651 -3.76969 8.0891
head 16.8787 -3.3925 4.26305
rclavicle -1.59028e-014 -9.54166e-015
rhumerus 20.0639 4.34299 -57.4534
rradius 95.6347
rwrist 30.6449
rhand -2.00856 -5.9915
rfingers 7.12502
rthumb 23.6652 -34.5548
lclavicle -1.59028e-014 -9.54166e-015
lhumerus 23.0852 -35.5499 70.7636
lradius 62.4947
lwrist -36.6602
lhand -16.5651 23.7878
lfingers 7.12502
lthumb 9.65499 53.5465
rfemur -14.8955 -3.10962 30.1072
rtibia 15.1841
rfoot -5.65986 -4.85569
rtoes 15.1035
lfemur -78.9592 23.2038 -29.7231
ltibia 100.111
lfoot -17.1481 -25.5145
ltoes -22.6381
1117
root 3.85046 23.6046 -0.259946 -171.893 -30.9193 182.305
lowerback 13.4131 -2.57534 -8.08727
upperback 1.36143 -4.80112 -0.595537
thorax -5.46559 -2.24912 4.76199
lowerneck -11.8325 1.13333 -9.42312
upperneck 40.2727 -3.70185 7.9918
head 16.8358 -3.37854 4.24861
rclavicle -1.43125e-014 2.54444e-014
rhumerus 20.1924 4.70749 -57.2991
rradius 95.2218
rwrist 30.4822
rhand -2.6676 -5.87246
rfingers 7.12502
rthumb 23.0329 -34.5161
lclavicle -1.43125e-014 2.54444e-014
lhumerus 23.0137 -35.3306 70.9267
lradius 62.1134
lwrist -36.751
lhand -17.0883 23.7282
lfingers 7.12502
lthumb 9.15013 53.5097
rfemur -15.0283 -3.28998 30.0407
rtibia 15.2319
rfoot -5.26436 -4.84007
rtoes 15.1425
lfemur -78.7546 23.0428 -29.2949
ltibia 100.143
lfoot -17.7001 -24.9489
ltoes -23.5951
1118
root 3.84332 23.6215 -0.23528 -171.66 -31.0891 182.233
lowerback 13.1683 -2.71405 -7.86886
upperback 1.28478 -4.92614 -0.60599
thorax -5.4132 -2.3127 4.63355
lowerneck -11.8181 1.08586 -9.59449
upperneck 40.1225 -3.66015 7.98204
head 16.7472 -3.37251 4.27885
rclavicle -2.98177e-014 -2.8625e-014
rhumerus 20.2576 5.03374 -57.1192
rradius 94.9042
rwrist 30.491
rhand -2.90442 -5.88655
rfingers 7.12502
rthumb 22.8057 -34.5584
lclavicle -2.98177e-014 -2.8625e-014
lhumerus 22.9894 -35.1704 71.0903
lradius 61.6526
lwrist -36.7226
lhand -17.4763 23.4429
lfingers 7.12502
lthumb 8.77578 53.2404
rfemur -15.3743 -3.63946 29.9386
rtibia 15.2443
rfoot -4.77309 -4.7388
rtoes 15.3687
lfemur -78.7796 22.6172 -29.0211
ltibia 100.232
lfoot -18.2469 -23.947
ltoes -23.0443
1119
root 3.84724 23.6456 -0.232249 -171.63 -31.2738 181.995
lowerback 13.0946 -2.73584 -8.04273
upperback 1.31408 -4.97948 -0.671802
thorax -5.32582 -2.3424 4.66185
lowerneck -11.8374 1.01367 -9.67428
upperneck 40.021 -3.73821 8.06906
head 16.7122 -3.39372 4.31852
rclavicle 8.74653e-014 4.77083e-014
rhumerus 20.2388 5.14213 -56.9786
rradius 94.6225
rwrist 30.5742
rhand -2.89571 -5.8464
rfingers 7.12502
rthumb 22.8141 -34.5172
lclavicle 8.74653e-014 4.77083e-014
lhumerus 23.1358 -35.3317 71.0457
lradius 61.2423
lwrist -36.5044
lhand -17.7529 23.836
lfingers 7.12502
lthumb 8.50882 53.6446
rfemur -15.2823 -3.72246 29.6934
rtibia 15.2075
rfoot -4.54464 -4.95136
rtoes 16.0236
lfemur -78.2788 22.44 -28.7378
ltibia 100.336
lfoot -19.3474 -22.5693
ltoes -23.3254
1120
root 3.85385 23.6711 -0.231645 -171.6 -31.3836 181.731
lowerback 13.0064 -2.70226 -8.2893
upperback 1.3451 -4.9688 -0.737386
thorax -5.23107 -2.34006 4.71991
lowerneck -11.8938 0.950442 -9.68553
upperneck 40.0175 -3.83521 8.11869
head 16.741 -3.42507 4.32832
rclavicle -2.5842e-014 3.33958e-014
rhumerus 20.2069 5.16556 -56.889
rradius 94.293
rwrist 30.6033
rhand -2.90846 -5.66239
rfingers 7.12502
rthumb 22.8018 -34.3347
lclavicle -2.5842e-014 3.33958e-014
lhumerus 23.2351 -35.5547 71.1154
lradius 60.8118
lwrist -36.3469
lhand -18.1702 24.3143
lfingers 7.12502
lthumb 8.10604 54.1388
rfemur -15.1473 -3.64532 29.4155
rtibia 15.1204
rfoot -4.3843 -5.25523
rtoes 15.9764
lfemur -77.6415 22.3214 -28.41
ltibia 100.476
lfoot -20.2939 -20.7492
ltoes -23.7348
